<svg width="24" height="24" viewBox="0 0 24 24" fill="none" xmlns="http://www.w3.org/2000/svg">
<path d="M13.1716 3H9C7.11438 3 6.17157 3 5.58579 3.58579C5 4.17157 5 5.11438 5 7V17C5 18.8856 5 19.8284 5.58579 20.4142C6.17157 21 7.11438 21 9 21H15C16.8856 21 17.8284 21 18.4142 20.4142C19 19.8284 19 18.8856 19 17V8.82843C19 8.41968 19 8.2153 18.9239 8.03153C18.8478 7.84776 18.7032 7.70324 18.4142 7.41421L14.5858 3.58579C14.2968 3.29676 14.1522 3.15224 13.9685 3.07612C13.7847 3 13.5803 3 13.1716 3Z" stroke="#0d76a6" stroke-width="2"/>
<path d="M10.6727 12.7169L10.2788 13.636L10.2788 13.636L10.6727 12.7169ZM13.8553 14.0809L14.2492 13.1617V13.1617L13.8553 14.0809ZM13.8553 15.9192L14.2492 16.8383H14.2492L13.8553 15.9192ZM10.6727 17.2831L10.2788 16.364L10.2788 16.364L10.6727 17.2831ZM10.2788 13.636L13.4614 15L14.2492 13.1617L11.0666 11.7977L10.2788 13.636ZM13.4614 15L10.2788 16.364L11.0666 18.2023L14.2492 16.8383L13.4614 15ZM8 13.8199V16.1802H10V13.8199H8ZM10.2788 16.364C10.1468 16.4205 10 16.3237 10 16.1802H8C8 17.7596 9.61491 18.8244 11.0666 18.2023L10.2788 16.364ZM13.4614 15L13.4614 15L14.2492 16.8383C15.8655 16.1456 15.8655 13.8544 14.2492 13.1617L13.4614 15ZM11.0666 11.7977C9.61491 11.1756 8 12.2404 8 13.8199H10C10 13.6763 10.1468 13.5795 10.2788 13.636L11.0666 11.7977Z" fill="#0d76a6"/>
<path d="M13 3V7C13 7.94281 13 8.41421 13.2929 8.70711C13.5858 9 14.0572 9 15 9H19" stroke="#0d76a6" stroke-width="2"/>
</svg>
